HIERARCHY
ROOT Hips
{
	OFFSET 0.000000 0.000000 0.000000
	CHANNELS 6 Xposition Yposition Zposition Xrotation Yrotation Zrotation
	JOINT Spine
	{
		OFFSET 0.000000 0.042231 0.063346
		CHANNELS 3 Xrotation Yrotation Zrotation
		JOINT Spine1
		{
			OFFSET 0.000000 0.014667 0.083179
			CHANNELS 3 Xrotation Yrotation Zrotation
			JOINT Spine2
			{
				OFFSET 0.000000 0.007361 0.084141
				CHANNELS 3 Xrotation Yrotation Zrotation
				JOINT Spine3
				{
					OFFSET 0.000000 0.000000 0.084462
					CHANNELS 3 Xrotation Yrotation Zrotation
					JOINT Neck
					{
						OFFSET 0.000000 -0.031673 0.221713
						CHANNELS 3 Xrotation Yrotation Zrotation
						JOINT Head
						{
							OFFSET 0.000000 -0.020167 0.114371
							CHANNELS 3 Xrotation Yrotation Zrotation
							End Site
							{
								OFFSET 0.000000 0.000000 0.000000
							}
						}
					}
					JOINT RightShoulder
					{
						OFFSET -0.029161 -0.048602 0.157471
						CHANNELS 3 Xrotation Yrotation Zrotation
						JOINT RightArm
						{
							OFFSET -0.144834 0.000000 0.000000
							CHANNELS 3 Xrotation Yrotation Zrotation
							JOINT RightForeArm
							{
								OFFSET -0.274949 0.000000 0.000000
								CHANNELS 3 Xrotation Yrotation Zrotation
								JOINT RightHand
								{
									OFFSET -0.254725 0.000000 0.000000
									CHANNELS 3 Xrotation Yrotation Zrotation
									JOINT RightHandEnd
									{
										OFFSET -0.068160 0.000000 0.000000
										CHANNELS 3 Xrotation Yrotation Zrotation
										End Site
										{
											OFFSET 0.000000 0.000000 0.000000
										}
									}
									JOINT RightHandThumb1
									{
										OFFSET -0.027264 -0.045440 -0.018176
										CHANNELS 3 Xrotation Yrotation Zrotation
										End Site
										{
											OFFSET 0.000000 0.000000 0.000000
										}
									}
								}
							}
						}
					}
					JOINT LeftShoulder
					{
						OFFSET 0.029161 -0.048602 0.157471
						CHANNELS 3 Xrotation Yrotation Zrotation
						JOINT LeftArm
						{
							OFFSET 0.144834 0.000000 0.000000
							CHANNELS 3 Xrotation Yrotation Zrotation
							JOINT LeftForeArm
							{
								OFFSET 0.274949 0.000000 0.000000
								CHANNELS 3 Xrotation Yrotation Zrotation
								JOINT LeftHand
								{
									OFFSET 0.254725 0.000000 0.000000
									CHANNELS 3 Xrotation Yrotation Zrotation
									JOINT LeftHandEnd
									{
										OFFSET 0.068160 0.000000 0.000000
										CHANNELS 3 Xrotation Yrotation Zrotation
										End Site
										{
											OFFSET 0.000000 0.000000 0.000000
										}
									}
									JOINT LeftHandThumb1
									{
										OFFSET 0.027264 -0.045440 -0.018176
										CHANNELS 3 Xrotation Yrotation Zrotation
										End Site
										{
											OFFSET 0.000000 0.000000 0.000000
										}
									}
								}
							}
						}
					}
				}
			}
		}
	}
	JOINT RightUpLeg
	{
		OFFSET -0.086512 0.000000 -0.025273
		CHANNELS 3 Xrotation Yrotation Zrotation
		JOINT RightLeg
		{
			OFFSET 0.000000 0.000000 -0.433119
			CHANNELS 3 Xrotation Yrotation Zrotation
			JOINT RightFoot
			{
				OFFSET 0.000000 0.000000 -0.404688
				CHANNELS 3 Xrotation Yrotation Zrotation
				JOINT RightToeBase
				{
					OFFSET 0.000000 -0.126496 -0.046041
					CHANNELS 3 Xrotation Yrotation Zrotation
					End Site
					{
						OFFSET 0.000000 0.000000 0.000000
					}
				}
			}
		}
	}
	JOINT LeftUpLeg
	{
		OFFSET 0.086512 0.000000 -0.025273
		CHANNELS 3 Xrotation Yrotation Zrotation
		JOINT LeftLeg
		{
			OFFSET 0.000000 0.000000 -0.433119
			CHANNELS 3 Xrotation Yrotation Zrotation
			JOINT LeftFoot
			{
				OFFSET 0.000000 0.000000 -0.404688
				CHANNELS 3 Xrotation Yrotation Zrotation
				JOINT LeftToeBase
				{
					OFFSET 0.000000 -0.126496 -0.046041
					CHANNELS 3 Xrotation Yrotation Zrotation
					End Site
					{
						OFFSET 0.000000 0.000000 0.000000
					}
				}
			}
		}
	}
}
MOTION
Frames: 12
Frame Time: 0.033333
-0.099332 -0.755297 0.601828 78.594300 -7.047000 6.868600 6.902800 2.324800 0.148700 6.207300 1.487100 -0.419300 0.805800 0.636200 0.375000 -0.183900 1.495300 -1.257800 -12.167200 -12.191200 -0.108500 -1.356700 10.892000 5.312400 -16.420700 10.385000 27.006800 1.081200 -33.824500 45.148700 0.000000 0.000000 13.221900 -62.470700 76.626600 71.744100 0.000000 0.000000 0.000000 0.000000 0.000000 0.000000 -2.662700 -6.907100 -31.616900 -5.778100 17.696800 -35.433000 0.000000 0.000000 -25.801300 -21.156500 -46.538400 -27.087600 0.000000 0.000000 0.000000 0.000000 0.000000 0.000000 -6.960100 -1.148000 -20.391600 12.735600 0.000000 0.000000 4.100700 -14.098100 -12.794900 3.764200 0.000000 0.000000 -16.434600 -2.732100 4.484600 17.653500 0.000000 0.000000 19.170500 18.212600 17.198500 19.033400 0.000000 0.000000 
-0.101430 -0.754710 0.601434 78.837300 -6.799100 7.401300 6.739800 2.354300 0.160700 6.096000 1.473100 -0.407400 0.700500 0.594400 0.325500 -0.232400 1.506100 -1.204800 -11.821600 -11.729800 -0.296100 -1.756800 10.563600 5.071500 -16.002500 10.490700 26.780100 0.378600 -34.396900 44.710900 0.000000 0.000000 12.891100 -64.643800 76.490900 74.340000 0.000000 0.000000 0.000000 0.000000 0.000000 0.000000 -2.713800 -6.258700 -30.554300 -10.194500 21.606100 -33.053000 0.000000 0.000000 -28.055500 -20.700700 -43.882100 -28.681300 0.000000 0.000000 0.000000 0.000000 0.000000 0.000000 -6.845100 -1.125900 -21.106700 12.409600 0.000000 0.000000 4.142100 -13.818800 -12.652700 3.822900 0.000000 0.000000 -16.383700 -2.741100 3.514700 16.847300 0.000000 0.000000 18.533300 18.440000 17.355300 18.986100 0.000000 0.000000 
-0.101272 -0.754446 0.600895 79.097700 -6.608700 7.275100 6.685400 2.547200 0.100200 6.069600 1.544300 -0.397100 0.614500 0.656700 0.353800 -0.259100 1.593600 -1.263600 -11.463300 -11.897600 -0.242100 -2.188800 10.636000 5.112400 -15.590600 10.318300 26.431600 0.016600 -34.443000 44.937600 0.000000 0.000000 12.786900 -66.460900 76.339600 76.044100 0.000000 0.000000 0.000000 0.000000 0.000000 0.000000 -2.967800 -6.393800 -30.435800 -12.017000 22.424400 -31.882800 0.000000 0.000000 -25.601200 -21.754100 -46.044000 -26.677300 0.000000 0.000000 0.000000 0.000000 0.000000 0.000000 -6.861300 -0.922100 -21.299500 12.182300 0.000000 0.000000 4.050900 -13.361100 -12.625600 3.559400 0.000000 0.000000 -16.219600 -2.686000 2.722800 16.292500 0.000000 0.000000 18.115000 18.520800 17.591700 19.058600 0.000000 0.000000 
-0.098791 -0.754649 0.599697 79.417500 -6.263400 6.465600 6.740100 2.810300 -0.024400 6.141100 1.712100 -0.416600 0.564400 0.674300 0.282000 -0.300600 1.644400 -1.314900 -11.756300 -12.402000 -0.290700 -2.443200 10.957700 5.490800 -14.854400 10.195500 25.735000 -0.305000 -34.069900 45.973800 0.000000 0.000000 13.374000 -68.002100 76.302100 77.077800 0.000000 0.000000 0.000000 0.000000 0.000000 0.000000 -3.412700 -7.447400 -31.187700 -10.583500 20.623800 -32.397100 0.000000 0.000000 -20.299700 -23.221100 -50.161500 -22.430500 0.000000 0.000000 0.000000 0.000000 0.000000 0.000000 -7.078800 -0.807000 -21.313000 12.088200 0.000000 0.000000 4.024700 -13.069300 -12.438600 3.251100 0.000000 0.000000 -15.985700 -2.766800 2.188900 15.866500 0.000000 0.000000 17.597600 18.757700 17.632400 19.268000 0.000000 0.000000 
-0.093830 -0.755429 0.597238 79.899400 -5.692900 4.903400 6.722700 3.065600 -0.207800 6.149100 1.909700 -0.434100 0.555500 0.561200 0.144800 -0.354100 1.564500 -1.229800 -12.339500 -12.727300 -0.469200 -2.470200 11.425700 5.997100 -14.067600 10.159800 24.966100 -0.600400 -33.785700 47.598800 0.000000 0.000000 14.240500 -69.351500 76.273900 78.124700 0.000000 0.000000 0.000000 0.000000 0.000000 0.000000 -3.615200 -8.674600 -31.274500 -8.141100 18.910000 -33.180000 0.000000 0.000000 -17.072800 -25.906100 -55.434400 -21.887900 0.000000 0.000000 0.000000 0.000000 0.000000 0.000000 -7.501700 -0.903200 -21.166900 11.954300 0.000000 0.000000 4.168800 -13.174700 -11.922100 3.194300 0.000000 0.000000 -15.583700 -3.060800 2.316200 15.101700 0.000000 0.000000 16.347500 19.014200 17.949000 19.586900 0.000000 0.000000 
-0.086782 -0.756620 0.593519 80.426500 -5.148100 2.893600 6.472400 3.246000 -0.365000 5.954100 1.983900 -0.426100 0.583900 0.480800 0.278800 -0.402500 1.392000 -1.025000 -12.160800 -12.394100 -0.373500 -2.363300 11.645800 6.255600 -13.608400 10.109800 24.548600 -0.330500 -33.490700 49.234200 0.000000 0.000000 14.597000 -69.966400 76.162300 78.512000 0.000000 0.000000 0.000000 0.000000 0.000000 0.000000 -3.364700 -8.783000 -29.812000 -6.645900 18.367700 -33.728700 0.000000 0.000000 -17.552800 -31.078100 -61.324000 -27.844600 0.000000 0.000000 0.000000 0.000000 0.000000 0.000000 -7.892300 -0.989700 -20.713200 11.726400 0.000000 0.000000 4.339600 -13.489200 -11.381100 3.317500 0.000000 0.000000 -14.901400 -3.299800 2.892000 14.033500 0.000000 0.000000 14.614200 19.107700 18.655600 20.002700 0.000000 0.000000 
-0.079009 -0.757789 0.589354 80.701000 -4.808400 1.232300 6.080500 3.221500 -0.403800 5.665400 1.872600 -0.377800 0.627500 0.575200 0.772300 -0.444800 1.271800 -0.858100 -11.046400 -11.360500 0.161500 -2.343300 11.247300 6.192500 -13.312900 9.942800 24.446400 0.488100 -32.677100 50.157900 0.000000 0.000000 14.440200 -69.170200 76.052300 77.165100 0.000000 0.000000 0.000000 0.000000 0.000000 0.000000 -3.062300 -7.931900 -27.793800 -5.777700 18.419200 -34.493300 0.000000 0.000000 -19.595500 -34.200600 -64.096400 -32.167400 0.000000 0.000000 0.000000 0.000000 0.000000 0.000000 -7.964800 -0.873500 -20.036100 11.608800 0.000000 0.000000 4.404700 -13.637600 -11.166400 3.487000 0.000000 0.000000 -14.100100 -3.277500 3.361200 13.245700 0.000000 0.000000 13.060300 19.109000 19.232300 20.439300 0.000000 0.000000 
-0.071727 -0.758726 0.585671 80.611600 -4.649100 0.559700 5.806100 3.011400 -0.327600 5.470600 1.671300 -0.315900 0.688000 0.769000 1.189200 -0.479900 1.232600 -0.781500 -10.040300 -10.016900 0.701100 -2.575000 10.442300 6.058500 -12.875400 9.573100 24.280400 1.180100 -31.404800 50.071000 0.000000 0.000000 14.487300 -67.258800 76.057000 74.629900 0.000000 0.000000 0.000000 0.000000 0.000000 0.000000 -3.009000 -7.284100 -26.581800 -4.445200 18.224400 -35.910000 0.000000 0.000000 -20.662600 -32.452800 -64.057200 -29.568600 0.000000 0.000000 0.000000 0.000000 0.000000 0.000000 -7.669300 -0.554000 -19.575500 11.705600 0.000000 0.000000 4.431900 -13.484600 -11.061100 3.658200 0.000000 0.000000 -13.403700 -3.028400 3.661000 12.943200 0.000000 0.000000 11.685400 19.062500 19.531600 20.690300 0.000000 0.000000 
-0.065004 -0.759468 0.582950 80.499900 -4.579900 0.751500 5.647100 2.778700 -0.247800 5.371400 1.501100 -0.270700 0.761700 0.882700 1.158000 -0.503400 1.192500 -0.762200 -9.951800 -8.738900 0.887500 -2.916000 9.752800 5.906500 -12.418600 9.059500 23.916500 1.463700 -30.241700 49.479200 0.000000 0.000000 14.980500 -65.542100 76.090700 72.669000 0.000000 0.000000 0.000000 0.000000 0.000000 0.000000 -2.990700 -7.131800 -26.252000 -3.286600 18.047800 -37.347000 0.000000 0.000000 -20.739000 -31.149800 -63.979900 -27.558400 0.000000 0.000000 0.000000 0.000000 0.000000 0.000000 -7.375300 -0.154200 -19.641500 11.823900 0.000000 0.000000 4.503300 -13.277100 -10.741600 3.757300 0.000000 0.000000 -12.980400 -2.671900 3.944800 12.692000 0.000000 0.000000 10.152900 18.885000 19.929700 20.643000 0.000000 0.000000 
-0.058514 -0.760158 0.580804 80.572100 -4.523800 1.165500 5.512900 2.627500 -0.223700 5.264000 1.376200 -0.254100 0.791800 0.840000 0.830800 -0.515500 1.119100 -0.746000 -10.415100 -7.721300 0.796500 -3.117900 9.403100 5.576400 -12.138100 8.666600 23.545200 1.632900 -29.474000 49.031800 0.000000 0.000000 15.487900 -64.713600 76.032200 71.804000 0.000000 0.000000 0.000000 0.000000 0.000000 0.000000 -2.782900 -6.939700 -25.981600 -3.041700 18.396400 -38.175300 0.000000 0.000000 -21.086100 -32.237600 -65.136400 -29.453000 0.000000 0.000000 0.000000 0.000000 0.000000 0.000000 -7.236800 0.192700 -20.077400 11.707600 0.000000 0.000000 4.601200 -13.331100 -10.361000 3.778800 0.000000 0.000000 -12.662800 -2.334900 4.269600 12.062500 0.000000 0.000000 8.802000 18.628300 20.103000 20.511000 0.000000 0.000000 
-0.052464 -0.760694 0.578818 80.765900 -4.403300 1.365100 5.326200 2.498600 -0.213400 5.129100 1.260100 -0.251000 0.728500 0.732500 0.613800 -0.534300 1.047200 -0.724600 -10.640900 -7.021500 0.660700 -3.127500 9.203300 5.051100 -11.886900 8.525600 23.317300 1.844400 -28.912600 48.780700 0.000000 0.000000 15.698700 -64.116600 75.881600 71.017100 0.000000 0.000000 0.000000 0.000000 0.000000 0.000000 -2.463700 -6.567700 -25.482600 -3.113500 18.879900 -38.618800 0.000000 0.000000 -21.969700 -32.846500 -66.226700 -30.840100 0.000000 0.000000 0.000000 0.000000 0.000000 0.000000 -7.195800 0.390000 -20.416800 11.433500 0.000000 0.000000 4.686900 -13.648700 -10.291800 3.888000 0.000000 0.000000 -12.388200 -2.162400 4.641600 11.299300 0.000000 0.000000 8.202600 18.595800 19.332000 20.620200 0.000000 0.000000 
-0.047165 -0.760984 0.576776 80.869700 -4.230500 1.361900 5.158100 2.357600 -0.180400 5.015500 1.148700 -0.238100 0.630600 0.648600 0.634100 -0.569200 0.988700 -0.677500 -10.525300 -6.488900 0.579000 -3.098300 8.966700 4.522700 -11.508000 8.501900 23.176900 1.960400 -28.352500 48.373000 0.000000 0.000000 15.871100 -63.080700 75.760300 69.680100 0.000000 0.000000 0.000000 0.000000 0.000000 0.000000 -2.199300 -6.347800 -25.137300 -2.682500 18.927000 -39.196100 0.000000 0.000000 -22.696800 -31.807100 -66.608900 -29.599000 0.000000 0.000000 0.000000 0.000000 0.000000 0.000000 -7.083300 0.495200 -20.473600 11.239100 0.000000 0.000000 4.757100 -13.905900 -10.432300 4.139900 0.000000 0.000000 -12.149700 -2.136500 5.112500 10.865300 0.000000 0.000000 8.135100 18.842500 17.943000 20.855800 0.000000 0.000000 
